<svg width="53" height="35" viewBox="0 0 53 35" fill="none" xmlns="http://www.w3.org/2000/svg">
<path d="M43.66 19.8722H9.12147C8.94424 19.8722 8.79922 19.7283 8.79922 19.5525V6.71361C8.79922 6.53778 8.94424 6.39392 9.12147 6.39392H43.66C43.8372 6.39392 43.9823 6.53778 43.9823 6.71361V19.5525C43.9823 19.7315 43.8372 19.8722 43.66 19.8722ZM9.44372 19.2328H43.3378V7.03331H9.44372V19.2328Z" fill="#3893BA"/>
<path d="M26.3905 2.09719C26.9743 2.09719 27.4475 1.62772 27.4475 1.04859C27.4475 0.469471 26.9743 0 26.3905 0C25.8068 0 25.3336 0.469471 25.3336 1.04859C25.3336 1.62772 25.8068 2.09719 26.3905 2.09719Z" fill="#3893BA"/>
<path d="M23.8126 1.32359C24.0188 1.86388 23.7417 2.47129 23.1971 2.6759C22.6525 2.8805 22.0402 2.60556 21.834 2.06528C21.6277 1.525 21.9049 0.917585 22.4495 0.712981C22.9973 0.508377 23.6063 0.783313 23.8126 1.32359Z" fill="#3893BA"/>
<path d="M20.5095 2.8548C20.8962 3.28959 20.8511 3.95135 20.4128 4.33498C19.9746 4.71861 19.3075 4.67386 18.9208 4.23907C18.5341 3.80429 18.5793 3.14253 19.0175 2.7589C19.4558 2.37526 20.1228 2.42002 20.5095 2.8548Z" fill="#3893BA"/>
<path d="M28.9686 1.3235C28.7623 1.86379 29.0395 2.4712 29.5841 2.67581C30.1319 2.87721 30.741 2.60547 30.9472 2.062C31.1534 1.52171 30.8763 0.914298 30.3317 0.709694C29.7839 0.508287 29.1748 0.783223 28.9686 1.3235Z" fill="#3893BA"/>
<path d="M32.2715 2.8548C31.8848 3.28959 31.93 3.95135 32.3682 4.33498C32.8065 4.71861 33.4735 4.67386 33.8602 4.23907C34.2469 3.80429 34.2018 3.14253 33.7635 2.7589C33.3253 2.37526 32.6582 2.42002 32.2715 2.8548Z" fill="#3893BA"/>
<path d="M12.7243 13.117C12.7243 13.6956 12.2506 14.1655 11.6673 14.1655C11.0841 14.1655 10.6104 13.6956 10.6104 13.117C10.6104 12.5383 11.0841 12.0684 11.6673 12.0684C12.2506 12.0684 12.7243 12.5383 12.7243 13.117Z" fill="#3893BA"/>
<path d="M40.0574 13.117C40.0574 13.6956 40.5311 14.1655 41.1143 14.1655C41.6976 14.1655 42.1713 13.6956 42.1713 13.117C42.1713 12.5383 41.6976 12.0684 41.1143 12.0684C40.5311 12.0684 40.0574 12.5383 40.0574 13.117Z" fill="#3893BA"/>
<path d="M14.5417 11.6145C14.7125 11.5793 14.9832 11.5505 15.2604 11.5505C15.6535 11.5505 15.9049 11.6177 16.095 11.7711C16.2529 11.8862 16.3463 12.0652 16.3463 12.305C16.3463 12.5959 16.153 12.8517 15.8307 12.9668V12.9764C16.1208 13.0467 16.4591 13.2865 16.4591 13.734C16.4591 13.993 16.356 14.1912 16.2013 14.3383C15.9886 14.5301 15.6471 14.6196 15.1508 14.6196C14.8801 14.6196 14.6739 14.6004 14.5417 14.5844V11.6145ZM14.9349 12.8517H15.2926C15.7083 12.8517 15.9532 12.6375 15.9532 12.3466C15.9532 11.9917 15.6825 11.8542 15.2861 11.8542C15.1057 11.8542 15.0026 11.867 14.9381 11.8798V12.8517H14.9349ZM14.9349 14.2999C15.0122 14.3127 15.125 14.3191 15.2636 14.3191C15.6696 14.3191 16.0434 14.172 16.0434 13.734C16.0434 13.3216 15.6857 13.1522 15.2571 13.1522H14.9317V14.2999H14.9349Z" fill="#3893BA"/>
<path d="M19.5881 13.053C19.5881 14.092 18.9501 14.6419 18.1767 14.6419C17.3743 14.6419 16.8104 14.0249 16.8104 13.1106C16.8104 12.1515 17.4097 11.5249 18.2218 11.5249C19.05 11.5281 19.5881 12.1579 19.5881 13.053ZM17.2261 13.1042C17.2261 13.75 17.5773 14.3254 18.196 14.3254C18.818 14.3254 19.1724 13.7564 19.1724 13.0722C19.1724 12.4712 18.8566 11.8446 18.2025 11.8446C17.5515 11.8446 17.2261 12.4392 17.2261 13.1042Z" fill="#3893BA"/>
<path d="M22.6947 13.053C22.6947 14.092 22.0567 14.6419 21.2833 14.6419C20.4809 14.6419 19.9169 14.0249 19.9169 13.1106C19.9169 12.1515 20.5163 11.5249 21.3284 11.5249C22.1598 11.5281 22.6947 12.1579 22.6947 13.053ZM20.3359 13.1042C20.3359 13.75 20.6871 14.3254 21.3058 14.3254C21.9278 14.3254 22.2822 13.7564 22.2822 13.0722C22.2822 12.4712 21.9664 11.8446 21.3123 11.8446C20.6613 11.8446 20.3359 12.4392 20.3359 13.1042Z" fill="#3893BA"/>
<path d="M23.2037 11.576H23.5969V13.0307H23.6098C23.6903 12.9156 23.7709 12.8069 23.8482 12.7078L24.7795 11.576H25.2661L24.164 12.858L25.3499 14.594H24.8859L23.8837 13.1106L23.5937 13.4431V14.594H23.2037V11.576Z" fill="#3893BA"/>
<path d="M28.2148 13.2672C28.1922 12.8452 28.1664 12.3401 28.1696 11.9629H28.1568C28.0536 12.3177 27.928 12.6918 27.7733 13.1106L27.2351 14.5748H26.9387L26.4456 13.1362C26.3006 12.711 26.1782 12.3209 26.0944 11.9629H26.0847C26.075 12.3401 26.0525 12.8452 26.0267 13.296L25.9461 14.5908H25.5723L25.7818 11.576H26.2845L26.8033 13.037C26.929 13.4079 27.0321 13.7404 27.1095 14.0537H27.1223C27.1997 13.75 27.306 13.4175 27.4414 13.037L27.9827 11.576H28.4822L28.6724 14.594H28.2889L28.2148 13.2672Z" fill="#3893BA"/>
<path d="M29.7228 13.6445L29.407 14.594H29.001L30.0354 11.576H30.5091L31.5467 14.594H31.1278L30.8023 13.6445H29.7228ZM30.7218 13.3408L30.4253 12.4712C30.3576 12.273 30.3125 12.094 30.2674 11.9213H30.2577C30.2126 12.1003 30.1643 12.2826 30.1031 12.468L29.8066 13.3408H30.7218Z" fill="#3893BA"/>
<path d="M31.9916 11.576H32.3847V13.0307H32.3976C32.4782 12.9156 32.5587 12.8069 32.6361 12.7078L33.5674 11.576H34.054L32.9519 12.858L34.1377 14.594H33.6737L32.6715 13.1106L32.3815 13.4431V14.594H31.9883V11.576H31.9916Z" fill="#3893BA"/>
<path d="M36.0131 13.1777H34.8305V14.2647H36.1485V14.5908H34.4373V11.5729H36.0808V11.899H34.8305V12.8516H36.0131V13.1777Z" fill="#3893BA"/>
<path d="M36.6577 11.6145C36.8574 11.5729 37.141 11.5505 37.4117 11.5505C37.8306 11.5505 38.1013 11.6273 38.2915 11.7967C38.4461 11.931 38.5299 12.1388 38.5299 12.369C38.5299 12.7686 38.2786 13.0307 37.9563 13.1394V13.1522C38.1916 13.2321 38.3301 13.4463 38.4042 13.7596C38.5041 14.1816 38.575 14.4725 38.6395 14.5876H38.2334C38.1851 14.5013 38.1174 14.2424 38.0304 13.8683C37.9402 13.4527 37.7791 13.2961 37.4214 13.2833H37.0508V14.5908H36.6577V11.6145ZM37.0508 12.9924H37.4536C37.8725 12.9924 38.14 12.7654 38.14 12.4201C38.14 12.0301 37.8564 11.8606 37.4407 11.8574C37.2506 11.8574 37.1152 11.8766 37.054 11.8926V12.9924H37.0508Z" fill="#3893BA"/>
<path d="M40.0573 8.89391H12.7242C12.634 8.89391 12.5631 8.82358 12.5631 8.73407C12.5631 8.64455 12.634 8.57422 12.7242 8.57422H40.0573C40.1475 8.57422 40.2184 8.64455 40.2184 8.73407C40.2184 8.82358 40.1475 8.89391 40.0573 8.89391Z" fill="#3893BA"/>
<path d="M40.0573 17.6631H12.7242C12.634 17.6631 12.5631 17.5927 12.5631 17.5032C12.5631 17.4137 12.634 17.3434 12.7242 17.3434H40.0573C40.1475 17.3434 40.2184 17.4137 40.2184 17.5032C40.2184 17.5895 40.1475 17.6631 40.0573 17.6631Z" fill="#3893BA"/>
<path d="M40.0573 29.8274H12.7242C12.547 29.8274 12.4019 29.6835 12.4019 29.5077C12.4019 29.3319 12.547 29.188 12.7242 29.188H40.0573C40.2345 29.188 40.3795 29.3319 40.3795 29.5077C40.3795 29.6835 40.2345 29.8274 40.0573 29.8274Z" fill="#3893BA"/>
<path d="M38.2075 32.4137H14.5738C14.3966 32.4137 14.2516 32.2698 14.2516 32.094C14.2516 31.9182 14.3966 31.7743 14.5738 31.7743H38.2043C38.3815 31.7743 38.5265 31.9182 38.5265 32.094C38.5298 32.2698 38.3847 32.4137 38.2075 32.4137Z" fill="#3893BA"/>
<path d="M36.6059 35H16.1754C15.9982 35 15.8531 34.8561 15.8531 34.6803C15.8531 34.5045 15.9982 34.3606 16.1754 34.3606H36.6059C36.7832 34.3606 36.9282 34.5045 36.9282 34.6803C36.9282 34.8561 36.7832 35 36.6059 35Z" fill="#3893BA"/>
<path d="M14.5739 24.2008H0.32406C0.198383 24.2008 0.0823736 24.1273 0.0308139 24.0122C-0.0207458 23.8971 -0.00141093 23.7628 0.085596 23.6701L5.20289 17.9764L0.0823736 12.2826C-0.00141092 12.1899 -0.0239683 12.0557 0.0275914 11.9406C0.0791511 11.8255 0.19516 11.752 0.320837 11.752H7.44574C7.62298 11.752 7.76799 11.8958 7.76799 12.0716C7.76799 12.2475 7.62298 12.3913 7.44574 12.3913H1.04267L5.87317 17.7654C5.98273 17.8869 5.98273 18.0691 5.87317 18.1906L1.04267 23.5614H14.2516V21.4291C14.2516 21.2532 14.3966 21.1094 14.5739 21.1094C14.7511 21.1094 14.8961 21.2532 14.8961 21.4291V23.8811C14.8961 24.0569 14.7543 24.2008 14.5739 24.2008Z" fill="#3893BA"/>
<path d="M12.9916 22.9443C12.9207 22.9443 12.8498 22.9219 12.7918 22.874L10.5651 21.1093C10.4265 20.9974 10.404 20.7992 10.5136 20.6585C10.6263 20.521 10.8261 20.4987 10.9679 20.6074L13.1947 22.3721C13.3332 22.484 13.3558 22.6822 13.2462 22.8228C13.1785 22.9028 13.0851 22.9443 12.9916 22.9443Z" fill="#3893BA"/>
<path d="M52.4574 24.2008H38.2076C38.0303 24.2008 37.8853 24.057 37.8853 23.8811V21.4291C37.8853 21.2533 38.0303 21.1094 38.2076 21.1094C38.3848 21.1094 38.5298 21.2533 38.5298 21.4291V23.5614H51.7388L46.9083 18.1874C46.7987 18.0659 46.7987 17.8837 46.9083 17.7622L51.7388 12.3882H45.3325C45.1552 12.3882 45.0102 12.2443 45.0102 12.0685C45.0102 11.8926 45.1552 11.7488 45.3325 11.7488H52.4574C52.583 11.7488 52.6991 11.8223 52.7506 11.9374C52.8022 12.0525 52.7828 12.1868 52.6958 12.2795L47.5785 17.9732L52.6958 23.6669C52.7796 23.7596 52.8022 23.8939 52.7506 24.009C52.6991 24.1273 52.5863 24.2008 52.4574 24.2008Z" fill="#3893BA"/>
<path d="M39.7897 22.9443C39.6963 22.9443 39.6028 22.9028 39.5384 22.8228C39.4256 22.6854 39.4481 22.484 39.5899 22.3721L41.8167 20.6074C41.9552 20.4987 42.1583 20.521 42.271 20.6585C42.3838 20.796 42.3613 20.9974 42.2195 21.1093L39.9927 22.874C39.9315 22.9187 39.8606 22.9443 39.7897 22.9443Z" fill="#3893BA"/>
<path d="M17.6449 25.3165C17.6513 24.0025 18.7631 22.9347 20.1004 22.9283C20.6901 22.9283 21.225 23.1202 21.644 23.4462C21.8051 23.5805 21.8309 23.8107 21.7116 23.9769C21.5763 24.1432 21.3314 24.1688 21.1767 24.0505C20.8835 23.8107 20.5161 23.686 20.1004 23.686C19.6396 23.686 19.211 23.8714 18.8952 24.1624C18.5955 24.4693 18.4086 24.8657 18.4086 25.3165C18.4086 25.7672 18.5955 26.1796 18.8952 26.4705C19.211 26.7615 19.6364 26.9469 20.1004 26.9469C20.5161 26.9469 20.877 26.8222 21.1767 26.5824C21.3314 26.4705 21.5795 26.4961 21.7116 26.656C21.8309 26.8222 21.8051 27.062 21.644 27.1867C21.2218 27.5127 20.6869 27.7046 20.1004 27.7046C18.7631 27.7046 17.6513 26.6368 17.6449 25.3165Z" fill="#3893BA"/>
<path d="M23.0104 27.3401V23.4271C23.0104 23.2289 23.1715 23.0626 23.3777 23.0626C23.584 23.0626 23.7515 23.2289 23.7515 23.4271V26.9693H25.5626C25.7559 26.9693 25.9299 27.1355 25.9299 27.3401C25.9299 27.5383 25.7559 27.7046 25.5626 27.7046H23.3971C23.3842 27.7046 23.3842 27.7046 23.3842 27.7046C23.3777 27.7046 23.3777 27.7046 23.3777 27.7046C23.1683 27.7046 23.0104 27.5383 23.0104 27.3401Z" fill="#3893BA"/>
<path d="M28.7142 27.7046C27.6379 27.7046 26.7807 26.8414 26.7807 25.7864V23.4239C26.7807 23.2193 26.9418 23.0594 27.1481 23.0594C27.3479 23.0594 27.5219 23.2193 27.5219 23.4239V25.7864C27.5219 26.4354 28.0568 26.9661 28.711 26.9661C29.3716 26.9661 29.9001 26.4354 29.9001 25.7864V23.4239C29.9001 23.2193 30.0676 23.0594 30.2739 23.0594C30.4801 23.0594 30.6412 23.2193 30.6412 23.4239V25.7864C30.6477 26.8414 29.7841 27.7046 28.7142 27.7046Z" fill="#3893BA"/>
<path d="M32.2203 27.3401V23.4271C32.2203 23.2225 32.3878 23.0626 32.5876 23.0626C32.5941 23.0626 32.5941 23.0626 32.607 23.0626C32.607 23.0626 32.607 23.0626 32.6134 23.0626H33.535C34.2375 23.0626 34.8047 23.6253 34.8047 24.3222C34.8047 24.6067 34.7113 24.8657 34.5501 25.0799C34.9529 25.3324 35.2268 25.7768 35.2268 26.2819C35.2268 27.0716 34.5856 27.7078 33.7961 27.7078H32.6134C32.607 27.7078 32.607 27.7014 32.607 27.7014C32.5941 27.7014 32.5941 27.7078 32.5876 27.7078C32.3878 27.7046 32.2203 27.5383 32.2203 27.3401ZM32.9614 24.8593H33.5383C33.8315 24.8593 34.0668 24.6131 34.0668 24.3222C34.0668 24.0313 33.8315 23.7979 33.5383 23.7979H32.9614V24.8593ZM32.9614 26.9693H33.7961C34.1763 26.9629 34.4857 26.6656 34.4857 26.2787C34.4857 25.9015 34.1795 25.601 33.7961 25.5946H32.9614V26.9693Z" fill="#3893BA"/>
</svg>
