<svg width="57" height="44" viewBox="0 0 57 44" fill="none" xmlns="http://www.w3.org/2000/svg">
<g clip-path="url(#clip0_1_878)">
<path d="M32.2324 21.4682H24.1724C23.9584 21.4682 23.7834 21.2966 23.7834 21.087C23.7834 20.8773 23.9584 20.7058 24.1724 20.7058H32.2324C32.4464 20.7058 32.6214 20.8773 32.6214 21.087C32.6214 21.2966 32.4464 21.4682 32.2324 21.4682Z" fill="white"/>
<path d="M35.4417 23.9421H21.5544C21.3405 23.9421 21.1654 23.7705 21.1654 23.5609C21.1654 23.3512 21.3405 23.1797 21.5544 23.1797H35.4417C35.6556 23.1797 35.8307 23.3512 35.8307 23.5609C35.8307 23.7743 35.6595 23.9421 35.4417 23.9421Z" fill="white"/>
<path d="M38.5731 26.3969H18.4269C18.2129 26.3969 18.0379 26.2254 18.0379 26.0157C18.0379 25.8061 18.2129 25.6345 18.4269 25.6345H38.5731C38.7871 25.6345 38.9621 25.8061 38.9621 26.0157C38.9621 26.2254 38.7871 26.3969 38.5731 26.3969Z" fill="white"/>
<path d="M15.1904 43.5387C15.2487 43.6988 15.1554 43.8703 14.992 43.9237C14.9686 43.9275 14.9259 43.9389 14.8675 43.9389C14.8675 43.9389 14.8675 43.9389 14.8636 43.9389C14.8092 43.9389 14.7236 43.9275 14.6458 43.8779C14.5719 43.8322 14.5096 43.7636 14.4668 43.6835C14.389 43.5234 14.3501 43.3252 14.3501 43.0203C14.3463 42.9135 14.3229 42.8449 14.284 42.7839C14.249 42.7229 14.1829 42.6696 14.1129 42.6238C13.9962 42.5476 13.8483 42.5018 13.7978 42.4904H13.1326V43.6911C13.1326 43.8589 12.9925 43.9961 12.8175 43.9961C12.6424 43.9961 12.5063 43.8589 12.5063 43.6911V40.432C12.5063 40.2605 12.6424 40.1271 12.8175 40.1271C12.8175 40.1271 12.8175 40.1271 12.8214 40.1271H13.825C14.498 40.1271 15.0309 40.6569 15.0309 41.3164C15.0309 41.6823 14.8636 42.0025 14.5913 42.2236C14.6652 42.2808 14.7314 42.3456 14.7897 42.4294C14.9025 42.5895 14.9764 42.7954 14.9764 43.0279C14.9725 43.1956 14.9881 43.2985 14.9998 43.3557C15.0853 43.3786 15.1554 43.4472 15.1904 43.5387ZM14.4007 41.3202C14.4007 41 14.1401 40.7446 13.8211 40.7446H13.1287V41.8843H13.8211C14.144 41.8843 14.4007 41.6289 14.4007 41.3202Z" fill="white"/>
<path d="M22.5969 40.6112C22.947 40.9772 23.1649 41.4613 23.1649 42.0102C23.1649 42.5591 22.9431 43.0508 22.5969 43.4091C22.2663 43.7674 21.7684 43.9999 21.251 43.9999C20.7103 43.9999 20.2124 43.7674 19.8701 43.4091C19.52 43.0508 19.3138 42.5591 19.3138 42.0102C19.3138 41.4651 19.5238 40.9772 19.8701 40.6112C20.2124 40.2453 20.7103 40.0204 21.251 40.0204C21.7684 40.0204 22.2663 40.2453 22.5969 40.6112ZM22.523 42.0102C22.523 41.6328 22.3713 41.2859 22.1379 41.042C21.9006 40.7942 21.5855 40.6493 21.2471 40.6493C20.8853 40.6493 20.5702 40.7942 20.333 41.042C20.0957 41.2859 19.9478 41.6328 19.9478 42.0102C19.9478 42.3875 20.0957 42.7344 20.333 42.9707C20.5702 43.2185 20.8853 43.3672 21.2471 43.3672C21.5855 43.3672 21.9006 43.2185 22.1379 42.9707C22.3713 42.7344 22.523 42.3837 22.523 42.0102Z" fill="white"/>
<path d="M30.4041 40.6494L29.2488 42.2008V43.6912C29.2488 43.8627 29.1126 43.9962 28.9376 43.9962C28.7742 43.9962 28.6264 43.8627 28.6264 43.6912V42.2008L27.4827 40.6494C27.3738 40.516 27.4049 40.3292 27.545 40.2301C27.685 40.131 27.8795 40.1576 27.9729 40.2949L28.9376 41.5871L29.9023 40.2949C30.0112 40.1576 30.2018 40.131 30.338 40.2301C30.4702 40.3292 30.4975 40.516 30.4041 40.6494Z" fill="white"/>
<path d="M36.457 43.0889H35.0877L34.8115 43.8055C34.7609 43.9275 34.6403 44 34.5197 44C34.4808 44 34.4458 43.9961 34.4108 43.9847C34.2474 43.9237 34.1696 43.7484 34.2241 43.5883L35.4689 40.333C35.5195 40.211 35.6439 40.1348 35.7684 40.1386C35.8968 40.1348 36.0174 40.211 36.068 40.333L37.3127 43.5883C37.3711 43.7484 37.2894 43.9237 37.126 43.9847C37.0988 43.9961 37.0599 44 37.0171 44C36.8926 44 36.7759 43.9275 36.7292 43.8055L36.457 43.0889ZM36.2236 42.479L35.7684 41.2897L35.3133 42.479H36.2236Z" fill="white"/>
<path d="M41.4672 43.695V40.4359C41.4672 40.2682 41.6034 40.131 41.7784 40.131C41.9535 40.131 42.0935 40.2682 42.0935 40.4359V43.3863H43.6223C43.7857 43.3863 43.9335 43.5235 43.9335 43.695C43.9335 43.8628 43.7857 44 43.6223 44H41.794C41.7823 44 41.7823 44 41.7823 44C41.7784 44 41.7784 44 41.7784 44C41.5995 44 41.4672 43.859 41.4672 43.695Z" fill="white"/>
<path d="M6.54295 36.4983C6.48071 36.4983 6.41847 36.483 6.36012 36.4563L4.1895 35.3395L2.02278 36.4563C1.89441 36.5249 1.73492 36.5135 1.61433 36.4258C1.49374 36.342 1.43539 36.1971 1.45873 36.0523L1.87496 33.6851L0.120575 32.0079C0.0155451 31.905 -0.0233547 31.7563 0.0233251 31.6153C0.070005 31.4781 0.190595 31.3752 0.338414 31.3561L2.76577 31.0092L3.85107 28.8555C3.98333 28.5963 4.41901 28.5963 4.54738 28.8555L5.63269 31.0092L8.06004 31.3561C8.20786 31.3752 8.32845 31.4781 8.37513 31.6153C8.42181 31.7525 8.38291 31.905 8.27788 32.0079L6.5235 33.6851L6.93972 36.0523C6.96306 36.1971 6.90472 36.3382 6.78413 36.4258C6.70633 36.4754 6.62464 36.4983 6.54295 36.4983ZM4.19339 34.5237C4.25563 34.5237 4.31787 34.539 4.37622 34.5657L6.02947 35.4157L5.71438 33.6127C5.69104 33.4907 5.73383 33.3611 5.82719 33.2735L7.16534 31.9965L5.3176 31.7335C5.18923 31.7144 5.08031 31.6382 5.02585 31.5238L4.19728 29.8809L3.36872 31.5238C3.31037 31.6382 3.20145 31.7144 3.07697 31.7335L1.22922 31.9965L2.56738 33.2735C2.66074 33.3611 2.69964 33.4869 2.68019 33.6127L2.3651 35.4157L4.01834 34.5657C4.06891 34.539 4.13115 34.5237 4.19339 34.5237Z" fill="white"/>
<path d="M50.4531 36.4983C50.3714 36.4983 50.2936 36.4754 50.2236 36.4258C50.103 36.342 50.0447 36.1971 50.068 36.0523L50.4842 33.6851L48.7299 32.0079C48.6248 31.905 48.5859 31.7563 48.6326 31.6153C48.6793 31.4781 48.7999 31.3752 48.9477 31.3561L51.3751 31.0092L52.4604 28.8555C52.5926 28.5963 53.0283 28.5963 53.1567 28.8555L54.242 31.0092L56.6693 31.3561C56.8171 31.3752 56.9377 31.4781 56.9844 31.6153C57.0311 31.7525 56.9922 31.905 56.8872 32.0079L55.1328 33.6851L55.549 36.0523C55.5724 36.1971 55.514 36.3382 55.3934 36.4258C55.2728 36.5097 55.1133 36.5211 54.985 36.4563L52.8143 35.3395L50.6437 36.4563C50.5776 36.483 50.5154 36.4983 50.4531 36.4983ZM49.8385 32.0003L51.1767 33.2773C51.27 33.3649 51.3089 33.4907 51.2895 33.6165L50.9744 35.4195L52.6276 34.5695C52.7404 34.5123 52.8766 34.5123 52.9894 34.5695L54.6426 35.4195L54.3276 33.6165C54.3042 33.4945 54.347 33.3649 54.4404 33.2773L55.7785 32.0003L53.9308 31.7373C53.8024 31.7182 53.6935 31.642 53.639 31.5276L52.8105 29.8847L51.9819 31.5276C51.9235 31.642 51.8146 31.7182 51.6901 31.7373L49.8385 32.0003Z" fill="white"/>
<path d="M24.1724 21.4682C24.0596 21.4682 23.9468 21.4224 23.8729 21.331L16.373 12.4189C16.2524 12.2779 16.2563 12.072 16.373 11.931C16.4935 11.7899 16.6997 11.7556 16.8631 11.8433L22.348 14.8699C21.889 12.8687 20.7648 7.96667 20.7648 7.96667C20.7259 7.79514 20.8114 7.6198 20.967 7.54356C21.1265 7.46732 21.321 7.50163 21.4377 7.63504C21.4377 7.63504 24.7598 11.3935 26.024 12.8191L28.1246 5.11923C28.1713 4.95151 28.323 4.83716 28.5019 4.83716C28.677 4.83716 28.8326 4.95151 28.8793 5.11923L30.9799 12.8191C32.2441 11.3897 35.5662 7.63504 35.5662 7.63504C35.6829 7.50163 35.8774 7.46732 36.0368 7.54356C36.1963 7.62361 36.278 7.79514 36.2391 7.96667C36.2391 7.96667 35.1149 12.8725 34.6559 14.8699L40.1408 11.8433C40.3042 11.7518 40.5103 11.7899 40.6309 11.931C40.7515 12.072 40.7515 12.2779 40.6309 12.4189L34.5392 19.6499C34.4031 19.8139 34.158 19.8367 33.9907 19.7033C33.8234 19.5699 33.8001 19.3298 33.9363 19.1658L38.6937 13.5129L34.2708 15.9525C34.0919 16.0516 33.8701 15.9982 33.7573 15.8305C33.664 15.6933 33.664 15.6933 34.5898 11.6642L35.1383 9.27032C31.0304 13.9131 31.0265 13.9169 30.9604 13.9513C30.8554 14.0008 30.7348 14.0046 30.6259 13.9589C30.5208 13.9131 30.4392 13.8217 30.408 13.7111L28.4942 6.69733L26.5803 13.7111C26.5492 13.8217 26.4714 13.9131 26.3624 13.9589C26.2574 14.0046 26.1329 14.0046 26.0279 13.9513C25.9618 13.9208 25.9579 13.9169 21.8539 9.27413L22.4024 11.668C23.3283 15.6971 23.3283 15.6971 23.2349 15.8343C23.1221 15.9982 22.8965 16.0516 22.7214 15.9563L18.2946 13.5129L24.468 20.8469C24.6042 21.0108 24.5808 21.2509 24.4136 21.3843C24.3474 21.4415 24.2619 21.4682 24.1724 21.4682Z" fill="white"/>
<path d="M28.498 5.59575C28.3969 5.59575 28.2996 5.55763 28.2218 5.48521L25.7556 3.0685C25.6817 2.99608 25.6428 2.90078 25.6428 2.79786C25.6428 2.69494 25.6856 2.59965 25.7556 2.52722L28.2218 0.11052C28.3735 -0.0381419 28.6186 -0.0381419 28.7703 0.11052L31.2366 2.52722C31.3105 2.59965 31.3494 2.69494 31.3494 2.79786C31.3494 2.90078 31.3066 2.99608 31.2366 3.0685L28.7703 5.48521C28.7003 5.56144 28.5992 5.59575 28.498 5.59575ZM26.5841 2.79786L28.5019 4.6771L30.4197 2.79786L28.5019 0.918628L26.5841 2.79786Z" fill="white"/>
<path d="M18.5514 28.3601H22.208C22.6747 28.3601 23.1026 28.4135 23.4878 28.5164C23.8768 28.6231 24.2074 28.7756 24.4836 28.9814C24.7598 29.1873 24.9737 29.4427 25.1293 29.7514C25.2849 30.0564 25.3588 30.4185 25.3588 30.8302C25.3588 31.1237 25.3199 31.3715 25.246 31.5773C25.1721 31.7831 25.0904 31.9547 25.0087 32.0919C24.9076 32.2558 24.7909 32.393 24.6586 32.5036C24.8648 32.6332 25.0515 32.7971 25.2188 32.9991C25.3588 33.1745 25.4872 33.3917 25.6039 33.6586C25.7206 33.9254 25.779 34.2494 25.779 34.6344C25.779 35.0727 25.7012 35.473 25.5417 35.8275C25.3822 36.1858 25.1566 36.4869 24.8609 36.7385C24.5653 36.9901 24.2074 37.1807 23.7834 37.3141C23.3594 37.4475 22.8848 37.5123 22.3636 37.5123H18.5553V28.3601H18.5514ZM21.9668 36.4145C22.7876 36.4145 23.3944 36.2392 23.7873 35.8923C24.1802 35.5454 24.3747 35.0842 24.3747 34.5048C24.3747 34.1312 24.293 33.8301 24.1296 33.6052C23.9662 33.3803 23.7912 33.2049 23.6045 33.0753C23.3711 32.9305 23.1143 32.8276 22.8342 32.7742C23.0599 32.7094 23.2582 32.6103 23.4372 32.4731C23.5967 32.3549 23.7367 32.191 23.8651 31.9852C23.9896 31.7793 24.0557 31.5163 24.0557 31.1961C24.0557 30.6205 23.869 30.186 23.4955 29.8925C23.1221 29.599 22.6125 29.4541 21.9707 29.4541H19.9556V36.4107H21.9668V36.4145ZM20.3174 32.6141V29.7857H21.9707C22.5775 29.7857 23.0132 29.9153 23.2816 30.1784C23.5461 30.4376 23.6823 30.7806 23.6823 31.1999C23.6823 31.6192 23.55 31.9623 23.2816 32.2215C23.0171 32.4807 22.5775 32.6141 21.9707 32.6141H20.3174ZM20.3174 36.0867V32.9457H21.9551C22.243 32.9457 22.5114 32.9762 22.7603 33.0334C23.0093 33.0944 23.2232 33.1859 23.41 33.3079C23.5967 33.4298 23.7445 33.5938 23.8495 33.7958C23.9546 33.9978 24.009 34.2341 24.009 34.5086C24.009 35.0651 23.8184 35.4692 23.4411 35.7169C23.0637 35.9647 22.5658 36.0867 21.9512 36.0867H20.3174ZM22.4725 31.1466C22.4725 30.7273 22.2391 30.5138 21.7723 30.5138H21.4377V31.7755H21.7723C22.2391 31.7755 22.4725 31.5659 22.4725 31.1466ZM21.7723 35.3586C22.4803 35.3586 22.8381 35.0918 22.8381 34.562C22.8381 34.0321 22.4841 33.7653 21.7723 33.7653H21.4377V35.3586H21.7723Z" fill="white"/>
<path d="M26.4091 28.3601H31.9135V30.7616H29.3927V31.7755H31.8707V34.055H29.3927V35.1109H32.0107V37.5123H26.4091V28.3601ZM30.9721 36.4145V36.0867H28.1713V33.083H30.832V32.7552H28.1713V29.7895H30.9721V29.4617H27.8056V36.4183H30.9721V36.4145Z" fill="white"/>
<path d="M34.0802 30.7616H32.3569V28.3601H38.8843V30.7616H37.1611V37.5123H34.0802V30.7616ZM35.8035 36.4145V29.7857H37.8068V29.4579H33.4383V29.7857H35.4417V36.4145H35.8035Z" fill="white"/>
</g>
<defs>
<clipPath id="clip0_1_878">
<rect width="57" height="44" fill="white"/>
</clipPath>
</defs>
</svg>
