<svg width="60" height="51" viewBox="0 0 60 51" fill="none" xmlns="http://www.w3.org/2000/svg">
<path d="M31.7141 6.1116C31.6777 6.1116 31.6413 6.10253 31.6094 6.08441L29.8657 5.17378L28.122 6.08441C28.0446 6.12519 27.9536 6.11613 27.8807 6.06629C27.8124 6.01646 27.776 5.93037 27.7897 5.8443L28.122 3.90977L26.7107 2.54155C26.6469 2.48265 26.6242 2.39204 26.6515 2.31049C26.6788 2.22894 26.7517 2.17005 26.8336 2.15646L28.7867 1.87556L29.6608 0.117725C29.7382 -0.0363121 29.9932 -0.0363121 30.0706 0.117725L30.9447 1.87556L32.8978 2.15646C32.9843 2.17005 33.0526 2.22894 33.0799 2.31049C33.1072 2.39204 33.0845 2.48265 33.0207 2.54155L31.6094 3.90977L31.9417 5.8443C31.9554 5.93037 31.9235 6.01646 31.8507 6.06629C31.8097 6.098 31.7642 6.1116 31.7141 6.1116ZM29.8657 4.68901C29.9021 4.68901 29.9386 4.69808 29.9704 4.7162L31.4136 5.47279L31.1405 3.87352C31.1268 3.80103 31.1541 3.72401 31.2042 3.67418L32.3697 2.54155L30.758 2.30596C30.6852 2.2969 30.6215 2.24707 30.585 2.18364L29.8657 0.729345L29.1464 2.18364C29.1145 2.2516 29.0508 2.2969 28.9734 2.30596L27.3617 2.54155L28.5272 3.67418C28.5818 3.72401 28.6046 3.80103 28.591 3.87352L28.3178 5.47279L29.761 4.7162C29.7929 4.69808 29.8293 4.68901 29.8657 4.68901Z" fill="#06E3C4"/>
<path d="M19.3262 8.56261C19.308 8.56261 19.2898 8.56261 19.2716 8.55807C19.1851 8.53995 19.1213 8.472 19.1031 8.38592L18.6661 6.47404L16.8359 5.74463C16.7539 5.71291 16.6993 5.63589 16.6947 5.54981C16.6902 5.46373 16.7312 5.38218 16.804 5.33688L18.4976 4.33564L18.6251 2.37845C18.6296 2.29237 18.6843 2.21536 18.7662 2.18364C18.8482 2.15193 18.9392 2.16552 19.003 2.22442L20.4871 3.51561L22.3993 3.03538C22.4812 3.01273 22.5723 3.04444 22.6269 3.10787C22.6815 3.17129 22.6952 3.26643 22.6633 3.34345L21.8848 5.1466L22.9365 6.80477C22.982 6.87725 22.982 6.9724 22.9365 7.04488C22.891 7.11737 22.809 7.15815 22.7225 7.15362L20.7603 6.9724L19.4992 8.48106C19.4582 8.53542 19.3945 8.56261 19.3262 8.56261ZM17.4368 5.49545L18.9483 6.09801C19.0166 6.12519 19.0712 6.18409 19.0849 6.25657L19.4446 7.83772L20.4871 6.59183C20.5327 6.53294 20.6101 6.50575 20.6829 6.51028L22.3082 6.65979L21.4387 5.28704C21.3977 5.22362 21.3931 5.1466 21.4204 5.07864L22.0624 3.5881L20.4871 3.98679C20.4143 4.00491 20.3369 3.98679 20.2823 3.93695L19.0576 2.86775L18.9483 4.48514C18.9438 4.55763 18.9028 4.62559 18.8391 4.66636L17.4368 5.49545Z" fill="#06E3C4"/>
<path d="M12.2468 14.1353C12.1739 14.1353 12.1056 14.099 12.0601 14.0401L10.9219 12.4363L8.95062 12.4635C8.8459 12.4499 8.78217 12.4182 8.74574 12.3412C8.70477 12.2642 8.71388 12.1736 8.76396 12.1011L9.9431 10.529L9.31028 8.67147C9.28296 8.58992 9.30573 8.49931 9.36491 8.44041C9.4241 8.38152 9.51515 8.35886 9.5971 8.38605L11.4637 9.01579L13.0435 7.84238C13.1118 7.79255 13.2074 7.78349 13.2848 7.82426C13.3622 7.86504 13.4123 7.94206 13.4077 8.02814L13.3804 9.98985L14.992 11.1225C15.0649 11.1723 15.0968 11.2584 15.0877 11.3445C15.074 11.4306 15.0148 11.4985 14.9283 11.5257L13.0435 12.1101L12.4562 13.9858C12.4289 14.0673 12.3606 14.1307 12.2741 14.1443C12.2695 14.1353 12.2604 14.1353 12.2468 14.1353ZM11.0403 11.9833C11.1131 11.9833 11.1814 12.0195 11.227 12.0784L12.1694 13.4013L12.652 11.8519C12.6747 11.7794 12.7294 11.725 12.8022 11.7024L14.3592 11.2221L13.0298 10.2843C12.9706 10.239 12.9342 10.1711 12.9342 10.0986L12.957 8.47666L11.6504 9.44619C11.5912 9.49149 11.5092 9.50055 11.4409 9.4779L9.89758 8.95689L10.4211 10.4927C10.4439 10.5652 10.4348 10.6422 10.3893 10.7011L9.41499 12.0014L11.0403 11.9833Z" fill="#06E3C4"/>
<path d="M7.84887 21.9821C7.80789 21.9821 7.76236 21.9685 7.72594 21.9459L6.05966 20.8993L4.24768 21.6741C4.17029 21.7103 4.07468 21.6922 4.01094 21.6378C3.9472 21.5834 3.91533 21.4928 3.9381 21.4113L4.42068 19.5085L3.12317 18.0315C3.06398 17.9681 3.05032 17.8729 3.08219 17.7959C3.11406 17.7144 3.19146 17.6645 3.27796 17.6555L5.24472 17.5286L6.25087 15.8433C6.2964 15.7708 6.37834 15.7255 6.46485 15.7345C6.55135 15.7436 6.62419 15.798 6.66061 15.875L7.3936 17.6963L9.31483 18.1312C9.40134 18.1493 9.46507 18.2173 9.48784 18.2988C9.50605 18.3804 9.47873 18.471 9.41044 18.5253L7.89439 19.7803L8.0765 21.7329C8.08561 21.819 8.04463 21.9006 7.96724 21.9459C7.93081 21.9731 7.88984 21.9821 7.84887 21.9821ZM6.07787 20.4191C6.11884 20.4191 6.16437 20.4327 6.20079 20.4553L7.58026 21.3207L7.43002 19.7078C7.42547 19.6353 7.45278 19.5628 7.51197 19.513L8.76396 18.4755L7.17507 18.1176C7.10222 18.0995 7.04304 18.0496 7.01572 17.9817L6.41021 16.4776L5.57707 17.873C5.54065 17.9364 5.47236 17.9772 5.39496 17.9817L3.76965 18.0859L4.84409 19.3046C4.89417 19.359 4.91238 19.436 4.89417 19.5085L4.49353 21.0806L5.99137 20.4418C6.01868 20.4236 6.046 20.4191 6.07787 20.4191Z" fill="#06E3C4"/>
<path d="M40.4007 8.56261C40.3324 8.56261 40.2686 8.53542 40.2277 8.48106L38.9666 6.9724L37.0043 7.15362C36.9224 7.16268 36.8359 7.1219 36.7904 7.04488C36.7448 6.9724 36.7448 6.87725 36.7904 6.80477L37.842 5.1466L37.0635 3.34345C37.0271 3.26643 37.0408 3.17129 37.1 3.10787C37.1546 3.04444 37.2456 3.01273 37.3276 3.03538L39.2397 3.51561L40.7239 2.22442C40.7876 2.16552 40.8787 2.15193 40.9606 2.18364C41.0426 2.21536 41.0927 2.29237 41.1018 2.37845L41.2293 4.33564L42.9229 5.33688C42.9957 5.38218 43.0412 5.46373 43.0321 5.54981C43.023 5.63589 42.9684 5.70838 42.891 5.74463L41.0608 6.47404L40.6237 8.38592C40.6055 8.472 40.5372 8.53542 40.4553 8.55807C40.4371 8.56261 40.4189 8.56261 40.4007 8.56261ZM39.0622 6.51028C39.1305 6.51028 39.1942 6.542 39.2352 6.59183L40.2777 7.83772L40.6374 6.25657C40.6556 6.18409 40.7057 6.12519 40.774 6.09801L42.2855 5.49545L40.8832 4.66636C40.8195 4.63012 40.7785 4.56216 40.774 4.48514L40.6693 2.86775L39.4446 3.93695C39.39 3.98679 39.308 4.00491 39.2397 3.98679L37.6599 3.5881L38.3019 5.07864C38.3337 5.1466 38.3246 5.22362 38.2837 5.28704L37.4141 6.65979L39.0349 6.51028C39.0485 6.51028 39.0576 6.51028 39.0622 6.51028Z" fill="#06E3C4"/>
<path d="M47.4847 14.1352C47.471 14.1352 47.4619 14.1352 47.4482 14.1307C47.3617 14.1171 47.2934 14.0582 47.2661 13.9721L46.6788 12.0965L44.794 11.512C44.7121 11.4848 44.6483 11.4169 44.6347 11.3308C44.621 11.2447 44.6574 11.1586 44.7303 11.1088L46.3419 9.97618L46.3146 8.01446C46.3146 7.92838 46.3601 7.84683 46.4375 7.81059C46.5149 7.76982 46.606 7.77888 46.6788 7.82871L48.2586 9.00212L50.1252 8.37237C50.2072 8.34519 50.2982 8.36784 50.3574 8.42674C50.4166 8.48564 50.4394 8.57625 50.412 8.6578L49.7792 10.5153L50.9584 12.0874C51.0084 12.1554 51.0175 12.2505 50.9766 12.3275C50.9356 12.4045 50.8582 12.4498 50.7717 12.4498C50.7717 12.4498 50.7717 12.4498 50.7671 12.4498L48.7958 12.4227L47.6577 14.0265C47.6258 14.1035 47.5575 14.1352 47.4847 14.1352ZM45.3722 11.2266L46.9292 11.7068C47.0021 11.7295 47.0567 11.7839 47.0795 11.8563L47.562 13.4058L48.5045 12.0829C48.5454 12.024 48.6183 11.9923 48.6911 11.9877L50.321 12.0104L49.3467 10.7101C49.3012 10.6512 49.2875 10.5742 49.3148 10.5017L49.8384 8.96587L48.295 9.48688C48.2222 9.50953 48.1448 9.49594 48.0856 9.45517L46.779 8.48564L46.8018 10.1076C46.8018 10.18 46.7653 10.2525 46.7061 10.2933L45.3722 11.2266Z" fill="#06E3C4"/>
<path d="M51.8826 21.9822C51.8416 21.9822 51.8006 21.9731 51.7642 21.9504C51.6914 21.9051 51.6504 21.8236 51.6549 21.7375L51.837 19.7849L50.321 18.5299C50.2527 18.4755 50.2254 18.3849 50.2436 18.3034C50.2618 18.2173 50.3301 18.1539 50.4166 18.1358L52.3378 17.7008L53.0708 15.8796C53.1027 15.798 53.1801 15.7436 53.2666 15.7391C53.3531 15.7346 53.435 15.7754 53.4806 15.8478L54.4867 17.5332L56.4535 17.66C56.54 17.6646 56.6174 17.7189 56.6492 17.8005C56.6811 17.882 56.6675 17.9727 56.6083 18.0361L55.3107 19.513L55.7933 21.4158C55.8161 21.4974 55.7842 21.588 55.7205 21.6424C55.6522 21.6967 55.5612 21.7103 55.4838 21.6786L53.6718 20.9039L52.0055 21.9504C51.9691 21.9731 51.9235 21.9822 51.8826 21.9822ZM50.9675 18.471L52.2195 19.5085C52.2787 19.5583 52.306 19.6308 52.3014 19.7033L52.1512 21.3162L53.5306 20.4508C53.5944 20.4101 53.6718 20.4055 53.7401 20.4327L55.2379 21.0715L54.8373 19.4994C54.8191 19.4269 54.8373 19.3499 54.8873 19.2956L55.9618 18.0769L54.3365 17.9727C54.2636 17.9681 54.1953 17.9273 54.1544 17.8639L53.3212 16.4685L52.7157 17.9727C52.6884 18.0406 52.6292 18.095 52.5564 18.1086L50.9675 18.471Z" fill="#06E3C4"/>
<path d="M3.30527 47.4075C2.46757 47.4075 1.78467 46.7279 1.78467 45.8943C1.78467 45.0607 2.46757 44.3811 3.30527 44.3811C4.14297 44.3811 4.82587 45.0607 4.82587 45.8943C4.82587 46.7279 4.14297 47.4075 3.30527 47.4075ZM3.30527 44.8342C2.71797 44.8342 2.23994 45.3099 2.23994 45.8943C2.23994 46.4787 2.71797 46.9544 3.30527 46.9544C3.89257 46.9544 4.3706 46.4787 4.3706 45.8943C4.3706 45.3099 3.89257 44.8342 3.30527 44.8342Z" fill="#06E3C4"/>
<path d="M10.8946 47.4075C10.0569 47.4075 9.37402 46.7279 9.37402 45.8943C9.37402 45.0607 10.0569 44.3811 10.8946 44.3811C11.7323 44.3811 12.4152 45.0607 12.4152 45.8943C12.4152 46.7279 11.7323 47.4075 10.8946 47.4075ZM10.8946 44.8342C10.3073 44.8342 9.82929 45.3099 9.82929 45.8943C9.82929 46.4787 10.3073 46.9544 10.8946 46.9544C11.4819 46.9544 11.96 46.4787 11.96 45.8943C11.96 45.3099 11.4819 44.8342 10.8946 44.8342Z" fill="#06E3C4"/>
<path d="M18.4839 47.4075C17.6463 47.4075 16.9633 46.7279 16.9633 45.8943C16.9633 45.0607 17.6463 44.3811 18.4839 44.3811C19.3216 44.3811 20.0046 45.0607 20.0046 45.8943C20.0046 46.7279 19.3216 47.4075 18.4839 47.4075ZM18.4839 44.8342C17.8967 44.8342 17.4186 45.3099 17.4186 45.8943C17.4186 46.4787 17.8967 46.9544 18.4839 46.9544C19.0712 46.9544 19.5493 46.4787 19.5493 45.8943C19.5493 45.3099 19.0712 44.8342 18.4839 44.8342Z" fill="#06E3C4"/>
<path d="M26.0688 47.4075C25.2311 47.4075 24.5482 46.7279 24.5482 45.8943C24.5482 45.0607 25.2311 44.3811 26.0688 44.3811C26.9065 44.3811 27.5894 45.0607 27.5894 45.8943C27.5939 46.7279 26.911 47.4075 26.0688 47.4075ZM26.0688 44.8342C25.4815 44.8342 25.0034 45.3099 25.0034 45.8943C25.0034 46.4787 25.4815 46.9544 26.0688 46.9544C26.6561 46.9544 27.1341 46.4787 27.1341 45.8943C27.1386 45.3099 26.6606 44.8342 26.0688 44.8342Z" fill="#06E3C4"/>
<path d="M33.6581 47.4075C32.8204 47.4075 32.1375 46.7279 32.1375 45.8943C32.1375 45.0607 32.8204 44.3811 33.6581 44.3811C34.4958 44.3811 35.1787 45.0607 35.1787 45.8943C35.1833 46.7279 34.5004 47.4075 33.6581 47.4075ZM33.6581 44.8342C33.0708 44.8342 32.5928 45.3099 32.5928 45.8943C32.5928 46.4787 33.0708 46.9544 33.6581 46.9544C34.2454 46.9544 34.7234 46.4787 34.7234 45.8943C34.728 45.3099 34.2454 44.8342 33.6581 44.8342Z" fill="#06E3C4"/>
<path d="M41.2475 47.4075C40.4098 47.4075 39.7269 46.7279 39.7269 45.8943C39.7269 45.0607 40.4098 44.3811 41.2475 44.3811C42.0852 44.3811 42.7681 45.0607 42.7681 45.8943C42.7681 46.7279 42.0852 47.4075 41.2475 47.4075ZM41.2475 44.8342C40.6602 44.8342 40.1821 45.3099 40.1821 45.8943C40.1821 46.4787 40.6602 46.9544 41.2475 46.9544C41.8348 46.9544 42.3128 46.4787 42.3128 45.8943C42.3128 45.3099 41.8348 44.8342 41.2475 44.8342Z" fill="#06E3C4"/>
<path d="M48.8368 47.4075C47.9991 47.4075 47.3162 46.7279 47.3162 45.8943C47.3162 45.0607 47.9991 44.3811 48.8368 44.3811C49.6745 44.3811 50.3574 45.0607 50.3574 45.8943C50.3574 46.7279 49.6745 47.4075 48.8368 47.4075ZM48.8368 44.8342C48.2495 44.8342 47.7715 45.3099 47.7715 45.8943C47.7715 46.4787 48.2495 46.9544 48.8368 46.9544C49.4241 46.9544 49.9022 46.4787 49.9022 45.8943C49.9022 45.3099 49.4241 44.8342 48.8368 44.8342Z" fill="#06E3C4"/>
<path d="M56.4216 47.4075C55.5839 47.4075 54.901 46.7279 54.901 45.8943C54.901 45.0607 55.5839 44.3811 56.4216 44.3811C57.2593 44.3811 57.9422 45.0607 57.9422 45.8943C57.9468 46.7279 57.2639 47.4075 56.4216 47.4075ZM56.4216 44.8342C55.8343 44.8342 55.3563 45.3099 55.3563 45.8943C55.3563 46.4787 55.8343 46.9544 56.4216 46.9544C57.0089 46.9544 57.4869 46.4787 57.4869 45.8943C57.4915 45.3099 57.0135 44.8342 56.4216 44.8342Z" fill="#06E3C4"/>
<path d="M59.2761 41.6944H0.45527C0.204871 41.6944 0 41.4906 0 41.2414C0 40.9922 0.204871 40.7883 0.45527 40.7883H59.2761C59.5265 40.7883 59.7314 40.9922 59.7314 41.2414C59.7314 41.4906 59.5265 41.6944 59.2761 41.6944Z" fill="#06E3C4"/>
<path d="M59.2761 51.0001H0.45527C0.204871 51.0001 0 50.7962 0 50.547C0 50.2979 0.204871 50.094 0.45527 50.094H59.2761C59.5265 50.094 59.7314 50.2979 59.7314 50.547C59.7314 50.7962 59.5265 51.0001 59.2761 51.0001Z" fill="#06E3C4"/>
<path d="M14.5823 18.5887C14.5823 17.1389 15.7842 15.9836 17.2593 15.9836C17.8739 15.9836 18.4612 16.192 18.9119 16.5454C19.0986 16.6813 19.1304 16.9486 18.9938 17.1299C18.8573 17.302 18.5886 17.3383 18.4065 17.1933C18.0924 16.9532 17.6963 16.8037 17.2593 16.8037C16.7357 16.8037 16.2804 16.9985 15.9526 17.3292C15.6112 17.6554 15.4109 18.0949 15.4109 18.5842C15.4109 19.0599 15.6157 19.4993 15.9526 19.8255C16.2804 20.1562 16.7357 20.3511 17.2593 20.3511C17.6235 20.3511 17.9649 20.2423 18.2517 20.0792V19.0916H17.2137C16.9907 19.0916 16.7994 18.9058 16.7994 18.6793C16.7994 18.4482 16.9861 18.2761 17.2137 18.2761H18.6433C18.6524 18.2761 18.6524 18.2761 18.6524 18.2761C18.6615 18.2761 18.6615 18.2761 18.6615 18.2761C18.8937 18.2761 19.0803 18.4482 19.0803 18.6793V20.274C19.0803 20.3239 19.0667 20.3511 19.0576 20.3964C19.0485 20.41 19.0485 20.419 19.0439 20.4326V20.4417C19.0212 20.5051 18.9802 20.564 18.9073 20.6138C18.4521 20.9672 17.8784 21.1756 17.2593 21.1756C15.7887 21.1801 14.5823 20.0339 14.5823 18.5887Z" fill="#06E3C4"/>
<path d="M24.6665 16.7538C25.1172 17.2295 25.3995 17.8638 25.3995 18.5796C25.3995 19.2954 25.1172 19.9388 24.6665 20.4054C24.2385 20.8766 23.6012 21.1756 22.9319 21.1756C22.2354 21.1756 21.598 20.8721 21.1564 20.4054C20.7057 19.9343 20.437 19.2954 20.437 18.5796C20.437 17.8638 20.7057 17.2295 21.1564 16.7538C21.598 16.2781 22.2354 15.9836 22.9319 15.9836C23.6012 15.9836 24.2385 16.2781 24.6665 16.7538ZM24.5709 18.5796C24.5709 18.0903 24.3751 17.6328 24.0792 17.3156C23.7742 16.9894 23.369 16.8037 22.9319 16.8037C22.4675 16.8037 22.0624 16.9894 21.7573 17.3156C21.4523 17.6328 21.2656 18.0858 21.2656 18.5796C21.2656 19.0689 21.4523 19.5265 21.7573 19.8346C22.0624 20.1608 22.4675 20.3556 22.9319 20.3556C23.369 20.3556 23.7742 20.1608 24.0792 19.8346C24.3751 19.5265 24.5709 19.0735 24.5709 18.5796Z" fill="#06E3C4"/>
<path d="M26.8472 20.7814V16.5227C26.8472 16.3052 27.0202 16.124 27.2479 16.124C27.4709 16.124 27.6531 16.3052 27.6531 16.5227V20.3782H29.6198C29.8292 20.3782 30.0205 20.5594 30.0205 20.7814C30.0205 20.9989 29.8338 21.1801 29.6198 21.1801H27.2706C27.257 21.1801 27.257 21.1801 27.257 21.1801C27.2479 21.1801 27.2479 21.1801 27.2479 21.1801C27.0248 21.1801 26.8472 20.9989 26.8472 20.7814Z" fill="#06E3C4"/>
<path d="M31.0585 20.7814V16.5227C31.0585 16.3007 31.2315 16.124 31.4591 16.124H32.315C33.7127 16.124 34.8463 17.2567 34.8463 18.643C34.8463 20.0429 33.7172 21.1755 32.315 21.1755H31.4591C31.2315 21.1801 31.0585 20.9989 31.0585 20.7814ZM31.8643 20.3782H32.315C33.2711 20.3691 34.0405 19.608 34.0405 18.6475C34.0405 17.7006 33.2711 16.9305 32.315 16.9305H31.8643V20.3782Z" fill="#06E3C4"/>
<path d="M36.2896 20.7814V16.5227C36.2896 16.3007 36.4626 16.124 36.6902 16.124H36.6993C36.6993 16.124 36.6993 16.124 36.713 16.124H39.0621C39.2716 16.124 39.4628 16.2962 39.4628 16.5227C39.4628 16.7447 39.2761 16.9259 39.0621 16.9259H37.0954V18.2488H38.7844C39.003 18.2488 39.1851 18.4346 39.1851 18.6475C39.1851 18.8695 39.003 19.0507 38.7844 19.0507H37.0954V20.3782H39.0621C39.2716 20.3782 39.4628 20.5594 39.4628 20.7814C39.4628 20.9989 39.2761 21.1801 39.0621 21.1801H36.713C36.6993 21.1801 36.6993 21.171 36.6993 21.171L36.6902 21.1801C36.4671 21.1801 36.2896 20.9989 36.2896 20.7814Z" fill="#06E3C4"/>
<path d="M41.5206 20.7815C41.5206 20.999 41.3385 21.1802 41.129 21.1802C40.9059 21.1802 40.7284 20.999 40.7284 20.7815V16.5862C40.7284 16.5862 40.7284 16.5862 40.7284 16.5772C40.7193 16.4548 40.7785 16.3235 40.8877 16.2464C41.0698 16.1241 41.3157 16.1604 41.4386 16.3325L43.7833 19.5583V16.5862C43.7833 16.3778 43.9563 16.1966 44.1748 16.1966C44.3933 16.1966 44.5754 16.3778 44.5754 16.5862V20.7815C44.5754 20.999 44.3933 21.1802 44.1748 21.1802C44.061 21.1802 43.9517 21.1213 43.8789 21.0352C43.8652 21.0216 43.8515 21.008 43.8424 20.9899L41.5206 17.7868V20.7815Z" fill="#06E3C4"/>
<path d="M0.450714 28.6101H3.16412C3.51013 28.6101 3.82882 28.6509 4.11564 28.7279C4.40246 28.8094 4.6483 28.9227 4.85317 29.0813C5.05804 29.2398 5.21739 29.4301 5.33121 29.6612C5.44502 29.8922 5.50421 30.1641 5.50421 30.4721C5.50421 30.6941 5.47689 30.8799 5.42226 31.0385C5.36763 31.1925 5.30844 31.3239 5.2447 31.4281C5.16731 31.5504 5.08081 31.6546 4.9852 31.7407C5.13544 31.8358 5.27657 31.9627 5.3995 32.1122C5.50421 32.2436 5.59981 32.4112 5.68632 32.6106C5.77282 32.8099 5.81834 33.0545 5.81834 33.3445C5.81834 33.6752 5.75916 33.9742 5.64079 34.2461C5.52242 34.5134 5.35397 34.7444 5.13544 34.9347C4.91691 35.125 4.6483 35.27 4.33417 35.3696C4.02003 35.4693 3.66492 35.5191 3.27794 35.5191H0.450714V28.6101ZM2.99112 34.6901C3.60118 34.6901 4.0519 34.5587 4.34327 34.2959C4.63464 34.0331 4.78033 33.6843 4.78033 33.2494C4.78033 32.9685 4.72114 32.7419 4.59822 32.5698C4.4753 32.4021 4.34782 32.2662 4.20669 32.1711C4.03369 32.0624 3.84247 31.9853 3.63305 31.9446C3.8015 31.8947 3.94719 31.8222 4.07921 31.718C4.19758 31.6274 4.3023 31.5051 4.3979 31.3511C4.49351 31.197 4.53904 30.9977 4.53904 30.7576C4.53904 30.3226 4.3979 29.9964 4.12474 29.7744C3.84703 29.5525 3.46915 29.4437 2.99112 29.4437H1.49328V34.6946H2.99112V34.6901ZM1.76189 31.8222V29.6884H2.99112C3.44184 29.6884 3.76508 29.788 3.9654 29.9829C4.16116 30.1777 4.26132 30.4359 4.26132 30.753C4.26132 31.0702 4.16116 31.3284 3.9654 31.5232C3.76963 31.718 3.44184 31.8177 2.99112 31.8177H1.76189V31.8222ZM1.76189 34.4409V32.0714H2.97746C3.19144 32.0714 3.39176 32.0941 3.57386 32.1394C3.75597 32.1847 3.91987 32.2526 4.05645 32.3478C4.19303 32.4429 4.3023 32.5652 4.38424 32.7148C4.46619 32.8688 4.50261 33.0455 4.50261 33.2539C4.50261 33.6752 4.36148 33.9788 4.07921 34.1645C3.79695 34.3503 3.42818 34.4454 2.97291 34.4454H1.76189V34.4409ZM3.36444 30.7123C3.36444 30.3951 3.19144 30.2366 2.84543 30.2366H2.59503V31.188H2.84543C3.19144 31.188 3.36444 31.0294 3.36444 30.7123ZM2.84543 33.8927C3.37355 33.8927 3.6376 33.6933 3.6376 33.2901C3.6376 32.8914 3.37355 32.6876 2.84543 32.6876H2.59503V33.8882H2.84543V33.8927Z" fill="#06E3C4"/>
<path d="M6.07785 32.0714C6.07785 31.5731 6.17346 31.1064 6.36467 30.6624C6.55588 30.223 6.81539 29.8379 7.14318 29.5072C7.47098 29.181 7.85795 28.9227 8.30412 28.7324C8.74573 28.5422 9.21921 28.447 9.72001 28.447C10.2208 28.447 10.6897 28.5422 11.1359 28.7324C11.5821 28.9227 11.9645 29.181 12.2968 29.5072C12.6246 29.8334 12.8841 30.2185 13.0753 30.6624C13.2666 31.1064 13.3622 31.5731 13.3622 32.0714C13.3622 32.5698 13.2666 33.0364 13.0753 33.4804C12.8841 33.9244 12.6246 34.305 12.2968 34.6357C11.969 34.9664 11.5821 35.2201 11.1359 35.4104C10.6897 35.6007 10.2208 35.6958 9.72001 35.6958C9.21921 35.6958 8.75028 35.6007 8.30412 35.4104C7.85795 35.2201 7.47553 34.9619 7.14318 34.6357C6.81539 34.3095 6.55588 33.9244 6.36467 33.4804C6.17346 33.0364 6.07785 32.5653 6.07785 32.0714ZM7.05668 32.0714C7.05668 32.4384 7.12497 32.7827 7.2661 33.0999C7.40269 33.4215 7.5939 33.7024 7.83974 33.9425C8.08559 34.1827 8.3633 34.3729 8.68655 34.5134C9.00979 34.6538 9.35579 34.7218 9.72001 34.7218C10.0888 34.7218 10.4302 34.6538 10.7535 34.5134C11.0767 34.3729 11.359 34.1872 11.6003 33.9425C11.8416 33.6979 12.0328 33.4215 12.1739 33.0999C12.3105 32.7782 12.3833 32.4339 12.3833 32.0714C12.3833 31.7045 12.315 31.3601 12.1739 31.043C12.0373 30.7213 11.8461 30.4404 11.6003 30.2003C11.359 29.9602 11.0767 29.7699 10.7535 29.6295C10.4302 29.4936 10.0842 29.4211 9.72001 29.4211C9.35124 29.4211 9.00523 29.489 8.68655 29.6295C8.3633 29.7699 8.08104 29.9557 7.83974 30.2003C7.59845 30.4404 7.40724 30.7213 7.2661 31.043C7.12497 31.3601 7.05668 31.7045 7.05668 32.0714ZM9.72001 34.45C9.38766 34.45 9.07808 34.3865 8.78671 34.2642C8.49989 34.1419 8.24493 33.9697 8.0264 33.7523C7.80787 33.5348 7.63487 33.2811 7.51195 32.9957C7.38903 32.7102 7.32529 32.4022 7.32529 32.0714C7.32529 31.7407 7.38903 31.4326 7.51195 31.1427C7.63487 30.8573 7.80787 30.6035 8.0264 30.3861C8.24493 30.1686 8.49989 29.9965 8.78671 29.8741C9.07352 29.7518 9.38311 29.6884 9.72001 29.6884C10.0524 29.6884 10.3619 29.7518 10.6488 29.8741C10.9356 29.9965 11.1905 30.1686 11.4091 30.3861C11.6276 30.6035 11.8006 30.8573 11.9235 31.1427C12.0464 31.4281 12.1102 31.7362 12.1102 32.0714C12.1102 32.4067 12.0464 32.7102 11.9235 32.9957C11.8006 33.2811 11.6276 33.5348 11.4091 33.7523C11.1905 33.9697 10.9356 34.1419 10.6488 34.2642C10.3619 34.3865 10.0524 34.45 9.72001 34.45ZM8.26314 32.0714C8.26314 32.2708 8.29957 32.4611 8.37696 32.6377C8.45436 32.8144 8.55907 32.9685 8.6911 33.0999C8.82313 33.2312 8.97792 33.3354 9.15547 33.4125C9.33303 33.4895 9.51969 33.5257 9.72456 33.5257C9.92488 33.5257 10.1161 33.4895 10.2936 33.4125C10.4712 33.3354 10.626 33.2312 10.758 33.0999C10.8901 32.9685 10.9948 32.8144 11.0722 32.6377C11.1496 32.4611 11.186 32.2753 11.186 32.0714C11.186 31.8676 11.1496 31.6818 11.0722 31.5051C10.9948 31.3284 10.8901 31.1744 10.758 31.043C10.626 30.9116 10.4712 30.8074 10.2936 30.7304C10.1161 30.6534 9.92943 30.6171 9.72456 30.6171C9.52424 30.6171 9.33303 30.6534 9.15547 30.7304C8.97792 30.8074 8.82313 30.9116 8.6911 31.043C8.55907 31.1744 8.45436 31.3284 8.37696 31.5051C8.30412 31.6818 8.26314 31.8676 8.26314 32.0714Z" fill="#06E3C4"/>
<path d="M13.7765 32.0714C13.7765 31.5731 13.8721 31.1064 14.0633 30.6624C14.2545 30.223 14.514 29.8379 14.8418 29.5072C15.1696 29.181 15.5566 28.9227 16.0027 28.7324C16.4443 28.5422 16.9178 28.447 17.4186 28.447C17.9194 28.447 18.3883 28.5422 18.8345 28.7324C19.2807 28.9227 19.6631 29.181 19.9954 29.5072C20.3232 29.8334 20.5827 30.2185 20.774 30.6624C20.9652 31.1064 21.0608 31.5731 21.0608 32.0714C21.0608 32.5698 20.9652 33.0364 20.774 33.4804C20.5827 33.9244 20.3232 34.305 19.9954 34.6357C19.6676 34.9664 19.2807 35.2201 18.8345 35.4104C18.3883 35.6007 17.9194 35.6958 17.4186 35.6958C16.9178 35.6958 16.4489 35.6007 16.0027 35.4104C15.5566 35.2201 15.1741 34.9619 14.8418 34.6357C14.514 34.3095 14.2545 33.9244 14.0633 33.4804C13.8721 33.0364 13.7765 32.5653 13.7765 32.0714ZM14.7553 32.0714C14.7553 32.4384 14.8236 32.7827 14.9647 33.0999C15.1013 33.4215 15.2925 33.7024 15.5384 33.9425C15.7842 34.1827 16.0619 34.3729 16.3852 34.5134C16.7084 34.6538 17.0544 34.7218 17.4186 34.7218C17.7874 34.7218 18.1288 34.6538 18.4521 34.5134C18.7753 34.3729 19.0576 34.1872 19.2989 33.9425C19.5402 33.6979 19.7314 33.4215 19.8725 33.0999C20.0091 32.7782 20.0819 32.4339 20.0819 32.0714C20.0819 31.7045 20.0137 31.3601 19.8725 31.043C19.7359 30.7213 19.5447 30.4404 19.2989 30.2003C19.0576 29.9602 18.7753 29.7699 18.4521 29.6295C18.1288 29.4936 17.7828 29.4211 17.4186 29.4211C17.0498 29.4211 16.7038 29.489 16.3852 29.6295C16.0619 29.7699 15.7796 29.9557 15.5384 30.2003C15.2971 30.4404 15.1058 30.7213 14.9647 31.043C14.8236 31.3601 14.7553 31.7045 14.7553 32.0714ZM17.4186 34.45C17.0863 34.45 16.7767 34.3865 16.4853 34.2642C16.1985 34.1419 15.9435 33.9697 15.725 33.7523C15.5065 33.5348 15.3335 33.2811 15.2106 32.9957C15.0876 32.7102 15.0239 32.4022 15.0239 32.0714C15.0239 31.7407 15.0876 31.4326 15.2106 31.1427C15.3335 30.8573 15.5065 30.6035 15.725 30.3861C15.9435 30.1686 16.1985 29.9965 16.4853 29.8741C16.7721 29.7518 17.0817 29.6884 17.4186 29.6884C17.751 29.6884 18.0605 29.7518 18.3474 29.8741C18.6342 29.9965 18.8891 30.1686 19.1077 30.3861C19.3262 30.6035 19.4992 30.8573 19.6221 31.1427C19.745 31.4281 19.8088 31.7362 19.8088 32.0714C19.8088 32.4067 19.745 32.7102 19.6221 32.9957C19.4992 33.2811 19.3262 33.5348 19.1077 33.7523C18.8891 33.9697 18.6342 34.1419 18.3474 34.2642C18.0605 34.3865 17.751 34.45 17.4186 34.45ZM15.9618 32.0714C15.9618 32.2708 15.9982 32.4611 16.0756 32.6377C16.153 32.8144 16.2577 32.9685 16.3897 33.0999C16.5217 33.2312 16.6765 33.3354 16.8541 33.4125C17.0316 33.4895 17.2183 33.5257 17.4232 33.5257C17.6235 33.5257 17.8147 33.4895 17.9923 33.4125C18.1698 33.3354 18.3246 33.2312 18.4566 33.0999C18.5887 32.9685 18.6934 32.8144 18.7708 32.6377C18.8482 32.4611 18.8846 32.2753 18.8846 32.0714C18.8846 31.8676 18.8482 31.6818 18.7708 31.5051C18.6934 31.3284 18.5887 31.1744 18.4566 31.043C18.3246 30.9116 18.1698 30.8074 17.9923 30.7304C17.8147 30.6534 17.628 30.6171 17.4232 30.6171C17.2229 30.6171 17.0316 30.6534 16.8541 30.7304C16.6765 30.8074 16.5217 30.9116 16.3897 31.043C16.2577 31.1744 16.153 31.3284 16.0756 31.5051C15.9982 31.6818 15.9618 31.8676 15.9618 32.0714Z" fill="#06E3C4"/>
<path d="M21.6344 28.6101H23.8835V30.2048L25.1946 28.6101H27.908L25.4632 31.7679L28.031 35.5146H25.3585L23.8835 33.3807V35.5146H21.6344V28.6101ZM22.9411 34.6901V33.2947L24.0246 31.9582L25.9185 34.6901H26.2418L24.2113 31.7407L26.0733 29.4437H25.741L22.9411 32.8824V29.4437H22.6724V34.6946H22.9411V34.6901Z" fill="#06E3C4"/>
<path d="M28.2404 28.6101H30.0706L31.878 31.2605L33.6763 28.6101H35.5111V35.5146H33.2939V33.0319L31.878 35.1023L30.453 33.0319V35.5146H28.2358V28.6101H28.2404ZM29.547 34.6901V29.9375L31.878 33.3128L34.1999 29.9375V34.6901H34.4685V29.4392H34.1999L31.878 32.8461L29.547 29.4392H29.2784V34.6901H29.547Z" fill="#06E3C4"/>
<path d="M38.2973 28.6101H39.9636L42.595 35.5146H40.4097L40.1821 34.8939H38.0788L37.8511 35.5146H35.6658L38.2973 28.6101ZM37.2183 34.6901L37.4141 34.1736H40.8468L41.0426 34.6901H41.3339L39.3262 29.4392H38.9301L36.9224 34.6901H37.2183ZM39.1304 29.6884L40.7512 33.9244H37.5051L39.1304 29.6884ZM39.5994 33.3717L39.1304 32.162L38.6615 33.3717H39.5994Z" fill="#06E3C4"/>
<path d="M42.7498 28.6101H44.9988V30.2048L46.31 28.6101H49.0234L46.5786 31.7679L49.1464 35.5146H46.4739L44.9988 33.3807V35.5146H42.7498V28.6101ZM44.061 34.6901V33.2947L45.1445 31.9582L47.0385 34.6901H47.3617L45.3312 31.7407L47.1933 29.4437H46.8609L44.061 32.8824V29.4437H43.7924V34.6946H44.061V34.6901Z" fill="#06E3C4"/>
<path d="M49.3558 28.6101H53.4441V30.4223H51.5729V31.188H53.4122V32.905H51.5729V33.7024H53.5169V35.5146H49.3558V28.6101ZM52.7475 34.6901V34.4409H50.6669V32.1756H52.6428V31.9264H50.6669V29.6884H52.7475V29.4392H50.3983V34.6901H52.7475Z" fill="#06E3C4"/>
<path d="M54.1407 28.6101H56.5354C56.977 28.6101 57.3913 28.669 57.7692 28.7868C58.1471 28.9046 58.4749 29.0767 58.7526 29.3033C59.0303 29.5298 59.2488 29.8107 59.4036 30.146C59.5584 30.4812 59.6358 30.8663 59.6358 31.3012C59.6358 31.6455 59.5857 31.94 59.4901 32.1802C59.3945 32.4203 59.2852 32.6241 59.1669 32.7827C59.0257 32.9639 58.8709 33.1134 58.6979 33.2403L60 35.5191H57.4004L56.3579 33.7704V35.5191H54.1407V28.6101ZM56.3078 33.1134C56.5764 33.1134 56.8404 33.0863 57.0999 33.0319L58.0879 34.6901H58.4111L57.3686 32.9503C57.7419 32.819 58.0423 32.6196 58.2609 32.3433C58.484 32.0714 58.5932 31.718 58.5932 31.2831C58.5932 30.9796 58.534 30.7123 58.4157 30.4857C58.2973 30.2592 58.138 30.0644 57.9331 29.9104C57.7282 29.7563 57.4869 29.6385 57.2092 29.557C56.9315 29.48 56.631 29.4392 56.3032 29.4392H55.1787V34.6901H55.4473V33.118H56.3078V33.1134ZM55.4519 32.8643V29.6838H56.3032C56.936 29.6838 57.4277 29.8243 57.7874 30.0961C58.1425 30.3725 58.3246 30.7666 58.3246 31.274C58.3246 31.786 58.1471 32.1756 57.7874 32.4475C57.4323 32.7193 56.936 32.8552 56.3032 32.8552H55.4519V32.8643ZM56.3579 32.008H56.4717C56.7357 32.008 56.9588 31.9491 57.1409 31.8313C57.323 31.7135 57.4186 31.5187 57.4186 31.2423C57.4186 30.966 57.3276 30.7712 57.1409 30.6534C56.9588 30.5356 56.7312 30.4767 56.4717 30.4767H56.3579V32.008Z" fill="#06E3C4"/>
</svg>
